<svg xmlns="http://www.w3.org/2000/svg" xmlns:xlink="http://www.w3.org/1999/xlink" width="40" zoomAndPan="magnify" viewBox="0 0 30 30.000001" height="40" preserveAspectRatio="xMidYMid meet" version="1.2"><defs><clipPath id="665a62e727"><path d="M 9.511719 2.902344 L 20.398438 2.902344 L 20.398438 26 L 9.511719 26 Z M 9.511719 2.902344 "/></clipPath></defs><g id="d5ce080458"><g clip-rule="nonzero" clip-path="url(#665a62e727)"><path style=" stroke:none;fill-rule:nonzero;fill=&quot;currentColor&quot
;fill-opacity:1;" d="M 17.886719 6.734375 L 20.398438 6.734375 L 20.398438 2.945312 L 17.191406 2.945312 L 17.191406 2.960938 C 12.976562 3.113281 12.105469 5.476562 12.035156 7.972656 L 12.023438 7.972656 L 12.023438 10.601562 L 9.511719 10.601562 L 9.511719 14.394531 L 12.023438 14.394531 L 12.023438 25.917969 L 16.53125 25.917969 L 16.53125 14.394531 L 19.761719 14.394531 L 20.398438 10.601562 L 16.53125 10.601562 L 16.53125 8.25 C 16.53125 7.414062 17.089844 6.734375 17.886719 6.734375 Z M 17.886719 6.734375 "/></g></g></svg>