<svg xmlns="http://www.w3.org/2000/svg" xmlns:xlink="http://www.w3.org/1999/xlink" width="40" zoomAndPan="magnify" viewBox="0 0 30 30.000001" height="40" preserveAspectRatio="xMidYMid meet" version="1.2"><defs><clipPath id="29aecc36cb"><path d="M 4.257812 3.773438 L 26.03125 3.773438 L 26.03125 25.546875 L 4.257812 25.546875 Z M 4.257812 3.773438 "/></clipPath></defs><g id="da92911b6c"><path style=" stroke:none;fill-rule:nonzero;fill=&quot;currentColor&quot;fill-opacity:1;" d="M 15.144531 8.882812 C 11.957031 8.882812 9.363281 11.472656 9.363281 14.660156 C 9.363281 17.847656 11.957031 20.441406 15.144531 20.441406 C 18.332031 20.441406 20.925781 17.847656 20.925781 14.660156 C 20.925781 11.472656 18.332031 8.882812 15.144531 8.882812 Z M 15.144531 18.402344 C 13.082031 18.402344 11.40625 16.722656 11.40625 14.660156 C 11.40625 12.597656 13.082031 10.921875 15.144531 10.921875 C 17.207031 10.921875 18.886719 12.597656 18.886719 14.660156 C 18.886719 16.722656 17.207031 18.402344 15.144531 18.402344 Z M 15.144531 18.402344 "/><path style=" stroke:none;fill-rule:nonzero;fill=&quot;currentColor&quot;fill-opacity:1;" d="M 21.144531 7.496094 C 20.496094 7.496094 19.976562 8.019531 19.976562 8.664062 C 19.976562 9.308594 20.496094 9.832031 21.144531 9.832031 C 21.789062 9.832031 22.3125 9.308594 22.3125 8.664062 C 22.3125 8.019531 21.789062 7.496094 21.144531 7.496094 Z M 21.144531 7.496094 "/><g clip-rule="nonzero" clip-path="url(#29aecc36cb)"><path style=" stroke:none;fill-rule:nonzero;fill=&quot;currentColor&quot;fill-opacity:1;" d="M 20.847656 3.773438 L 9.441406 3.773438 C 6.585938 3.773438 4.257812 6.101562 4.257812 8.957031 L 4.257812 20.363281 C 4.257812 23.222656 6.585938 25.546875 9.441406 25.546875 L 20.847656 25.546875 C 23.707031 25.546875 26.03125 23.222656 26.03125 20.363281 L 26.03125 8.957031 C 26.03125 6.101562 23.707031 3.773438 20.847656 3.773438 Z M 23.992188 20.363281 C 23.992188 22.097656 22.582031 23.507812 20.847656 23.507812 L 9.441406 23.507812 C 7.710938 23.507812 6.296875 22.097656 6.296875 20.363281 L 6.296875 8.957031 C 6.296875 7.226562 7.710938 5.816406 9.441406 5.816406 L 20.847656 5.816406 C 22.582031 5.816406 23.992188 7.226562 23.992188 8.957031 Z M 23.992188 20.363281 "/></g></g></svg>