<svg xmlns="http://www.w3.org/2000/svg" xmlns:xlink="http://www.w3.org/1999/xlink" width="40" zoomAndPan="magnify" viewBox="0 0 30 30.000001" height="40" preserveAspectRatio="xMidYMid meet" version="1.2"><defs><clipPath id="03b911d5f5"><path d="M 3.386719 6.417969 L 26.613281 6.417969 L 26.613281 22.382812 L 3.386719 22.382812 Z M 3.386719 6.417969 "/></clipPath></defs><g id="27233de805"><g clip-rule="nonzero" clip-path="url(#03b911d5f5)"><path style=" stroke:none;fill-rule:nonzero;fill=&quot;currentColor&quot;fill-opacity:1;" d="M 23.644531 6.417969 L 6.355469 6.417969 C 4.722656 6.417969 3.390625 7.730469 3.390625 9.339844 L 3.390625 19.460938 C 3.390625 21.074219 4.722656 22.386719 6.355469 22.386719 L 23.644531 22.386719 C 25.277344 22.386719 26.609375 21.074219 26.609375 19.460938 L 26.609375 9.339844 C 26.609375 7.730469 25.277344 6.417969 23.644531 6.417969 Z M 23.644531 8.011719 C 23.683594 8.011719 23.71875 8.03125 23.757812 8.035156 L 15.835938 14.210938 C 15.34375 14.59375 14.65625 14.59375 14.164062 14.210938 L 6.242188 8.035156 C 6.28125 8.03125 6.316406 8.011719 6.355469 8.011719 Z M 24.992188 19.460938 C 24.992188 20.195312 24.386719 20.789062 23.644531 20.789062 L 6.355469 20.789062 C 5.613281 20.789062 5.007812 20.195312 5.007812 19.460938 L 5.007812 9.339844 C 5.007812 9.269531 5.039062 9.207031 5.050781 9.136719 L 13.160156 15.460938 C 13.703125 15.882812 14.351562 16.09375 15 16.09375 C 15.648438 16.09375 16.296875 15.882812 16.839844 15.460938 L 24.949219 9.136719 C 24.960938 9.207031 24.992188 9.269531 24.992188 9.339844 Z M 24.992188 19.460938 "/></g></g></svg>