<svg xmlns="http://www.w3.org/2000/svg" xmlns:xlink="http://www.w3.org/1999/xlink" width="40" zoomAndPan="magnify" viewBox="0 0 30 30.000001" height="40" preserveAspectRatio="xMidYMid meet" version="1.2"><defs><clipPath id="a134b68046"><path d="M 3.386719 3.789062 L 26.613281 3.789062 L 26.613281 25.5625 L 3.386719 25.5625 Z M 3.386719 3.789062 "/></clipPath></defs><g id="f5a78e795f"><g clip-rule="nonzero" clip-path="url(#a134b68046)"><path style=" stroke:none;fill-rule:nonzero;fill=&quot;currentColor&quot;fill-opacity:1;" d="M 15.878906 3.789062 C 9.957031 3.789062 5.15625 8.589844 5.15625 14.507812 C 5.15625 15.824219 5.386719 17.09375 5.855469 18.324219 L 3.46875 22.796875 C 3.394531 22.9375 3.402344 23.074219 3.496094 23.203125 C 3.589844 23.332031 3.714844 23.386719 3.875 23.359375 L 8.769531 22.535156 C 9.75 23.40625 10.851562 24.074219 12.074219 24.535156 C 13.300781 25 14.566406 25.230469 15.878906 25.230469 C 21.796875 25.230469 26.597656 20.429688 26.597656 14.507812 C 26.597656 8.59375 21.792969 3.789062 15.878906 3.789062 Z M 15.910156 22.433594 C 14.863281 22.441406 13.855469 22.246094 12.886719 21.851562 C 11.917969 21.457031 11.0625 20.890625 10.316406 20.15625 L 7.382812 20.6875 C 7.230469 20.714844 7.105469 20.664062 7.011719 20.535156 C 6.917969 20.410156 6.90625 20.273438 6.976562 20.132812 L 8.457031 17.296875 C 8.109375 16.371094 7.941406 15.410156 7.953125 14.417969 C 8.003906 10.066406 11.527344 6.585938 15.878906 6.585938 C 20.253906 6.585938 23.800781 10.132812 23.800781 14.507812 C 23.800781 18.882812 20.28125 22.417969 15.910156 22.433594 Z M 15.910156 22.433594 "/></g><path style=" stroke:none;fill-rule:nonzero;fill=&quot;currentColor&quot;fill-opacity:1;" d="M 14.757812 11.835938 L 14.410156 10.375 C 14.371094 10.207031 14.296875 10.054688 14.191406 9.917969 C 14.085938 9.777344 13.957031 9.667969 13.804688 9.585938 C 13.652344 9.503906 13.492188 9.457031 13.316406 9.441406 C 13.144531 9.429688 12.976562 9.453125 12.8125 9.511719 L 12.015625 9.796875 C 11.75 9.894531 11.539062 10.066406 11.390625 10.308594 C 11.242188 10.550781 11.1875 10.8125 11.222656 11.09375 C 11.5 13.355469 12.777344 18.820312 18.664062 20.019531 C 18.90625 20.070312 19.136719 20.046875 19.363281 19.957031 C 19.589844 19.867188 19.773438 19.722656 19.910156 19.519531 L 20.367188 18.859375 C 20.460938 18.726562 20.523438 18.582031 20.558594 18.421875 C 20.589844 18.265625 20.59375 18.109375 20.566406 17.949219 C 20.535156 17.789062 20.476562 17.640625 20.390625 17.507812 C 20.304688 17.371094 20.191406 17.257812 20.058594 17.164062 C 20.058594 17.164062 20.054688 17.160156 20.054688 17.160156 L 19.046875 16.476562 C 18.824219 16.324219 18.574219 16.253906 18.304688 16.265625 C 18.035156 16.277344 17.792969 16.371094 17.585938 16.542969 C 17.378906 16.714844 17.140625 16.808594 16.871094 16.820312 C 16.601562 16.835938 16.355469 16.765625 16.132812 16.617188 C 15.519531 16.203125 14.691406 15.519531 14.15625 14.570312 C 14.03125 14.355469 13.976562 14.121094 13.996094 13.871094 C 14.015625 13.621094 14.105469 13.398438 14.261719 13.203125 L 14.519531 12.878906 C 14.769531 12.570312 14.847656 12.222656 14.757812 11.835938 Z M 14.757812 11.835938 "/></g></svg>